<svg id="visual" viewBox="0 0 1024 768" width="1024" height="768" xmlns="http://www.w3.org/2000/svg" xmlns:xlink="http://www.w3.org/1999/xlink" version="1.1"><rect x="0" y="0" width="1024" height="768" fill="#d1e1ec"></rect><defs><linearGradient id="grad1_0" x1="25%" y1="0%" x2="100%" y2="100%"><stop offset="23.333333333333336%" stop-color="#314bf6" stop-opacity="1"></stop><stop offset="76.66666666666666%" stop-color="#314bf6" stop-opacity="1"></stop></linearGradient></defs><defs><linearGradient id="grad1_1" x1="25%" y1="0%" x2="100%" y2="100%"><stop offset="23.333333333333336%" stop-color="#314bf6" stop-opacity="1"></stop><stop offset="76.66666666666666%" stop-color="#d1e1ec" stop-opacity="1"></stop></linearGradient></defs><defs><linearGradient id="grad2_0" x1="0%" y1="0%" x2="75%" y2="100%"><stop offset="23.333333333333336%" stop-color="#314bf6" stop-opacity="1"></stop><stop offset="76.66666666666666%" stop-color="#314bf6" stop-opacity="1"></stop></linearGradient></defs><defs><linearGradient id="grad2_1" x1="0%" y1="0%" x2="75%" y2="100%"><stop offset="23.333333333333336%" stop-color="#d1e1ec" stop-opacity="1"></stop><stop offset="76.66666666666666%" stop-color="#314bf6" stop-opacity="1"></stop></linearGradient></defs><g transform="translate(1024, 0)"><path d="M0 288C-43.5 269.1 -87.1 250.3 -132 228.6C-176.9 207 -223.2 182.6 -249.4 144C-275.6 105.4 -281.8 52.7 -288 0L0 0Z" fill="#45a2ff"></path><path d="M0 144C-21.8 134.6 -43.5 125.1 -66 114.3C-88.5 103.5 -111.6 91.3 -124.7 72C-137.8 52.7 -140.9 26.4 -144 0L0 0Z" fill="#314bf6"></path></g><g transform="translate(0, 768)"><path d="M0 -288C31 -247.4 62 -206.9 108.5 -187.9C155 -169 216.9 -171.7 249.4 -144C281.9 -116.3 285 -58.1 288 0L0 0Z" fill="#45a2ff"></path><path d="M0 -144C15.5 -123.7 31 -103.4 54.2 -94C77.5 -84.5 108.5 -85.9 124.7 -72C141 -58.1 142.5 -29.1 144 0L0 0Z" fill="#314bf6"></path></g></svg>