<svg id="visual" viewBox="0 0 1024 768" width="1024" height="768" xmlns="http://www.w3.org/2000/svg" xmlns:xlink="http://www.w3.org/1999/xlink" version="1.1"><rect x="0" y="0" width="1024" height="768" fill="#d1e1ec"></rect><defs><linearGradient id="grad1_0" x1="25%" y1="0%" x2="100%" y2="100%"><stop offset="23.333333333333336%" stop-color="#314bf6" stop-opacity="1"></stop><stop offset="76.66666666666666%" stop-color="#314bf6" stop-opacity="1"></stop></linearGradient></defs><defs><linearGradient id="grad1_1" x1="25%" y1="0%" x2="100%" y2="100%"><stop offset="23.333333333333336%" stop-color="#314bf6" stop-opacity="1"></stop><stop offset="76.66666666666666%" stop-color="#d1e1ec" stop-opacity="1"></stop></linearGradient></defs><defs><linearGradient id="grad2_0" x1="0%" y1="0%" x2="75%" y2="100%"><stop offset="23.333333333333336%" stop-color="#314bf6" stop-opacity="1"></stop><stop offset="76.66666666666666%" stop-color="#314bf6" stop-opacity="1"></stop></linearGradient></defs><defs><linearGradient id="grad2_1" x1="0%" y1="0%" x2="75%" y2="100%"><stop offset="23.333333333333336%" stop-color="#d1e1ec" stop-opacity="1"></stop><stop offset="76.66666666666666%" stop-color="#314bf6" stop-opacity="1"></stop></linearGradient></defs><g transform="translate(1024, 0)"><path d="M0 352C-35.2 297.7 -70.4 243.4 -127.5 220.8C-184.6 198.3 -263.8 207.5 -304.8 176C-345.9 144.5 -349 72.2 -352 0L0 0Z" fill="#45a2ff"></path><path d="M0 176C-17.6 148.8 -35.2 121.7 -63.7 110.4C-92.3 99.1 -131.9 103.8 -152.4 88C-173 72.2 -174.5 36.1 -176 0L0 0Z" fill="#314bf6"></path></g><g transform="translate(0, 768)"><path d="M0 -352C52.2 -327.3 104.5 -302.5 159.5 -276.3C214.5 -250 272.3 -222.3 304.8 -176C337.4 -129.7 344.7 -64.9 352 0L0 0Z" fill="#45a2ff"></path><path d="M0 -176C26.1 -163.6 52.2 -151.3 79.7 -138.1C107.3 -125 136.1 -111.1 152.4 -88C168.7 -64.9 172.3 -32.4 176 0L0 0Z" fill="#314bf6"></path></g></svg>