<svg id="visual" viewBox="0 0 1080 720" width="1080" height="720" xmlns="http://www.w3.org/2000/svg" xmlns:xlink="http://www.w3.org/1999/xlink" version="1.1"><rect x="0" y="0" width="1080" height="720" fill="#d1e1ec"></rect><defs><linearGradient id="grad1_0" x1="33.3%" y1="0%" x2="100%" y2="100%"><stop offset="20%" stop-color="#314bf6" stop-opacity="1"></stop><stop offset="80%" stop-color="#314bf6" stop-opacity="1"></stop></linearGradient></defs><defs><linearGradient id="grad1_1" x1="33.3%" y1="0%" x2="100%" y2="100%"><stop offset="20%" stop-color="#314bf6" stop-opacity="1"></stop><stop offset="80%" stop-color="#d1e1ec" stop-opacity="1"></stop></linearGradient></defs><defs><linearGradient id="grad2_0" x1="0%" y1="0%" x2="66.7%" y2="100%"><stop offset="20%" stop-color="#314bf6" stop-opacity="1"></stop><stop offset="80%" stop-color="#314bf6" stop-opacity="1"></stop></linearGradient></defs><defs><linearGradient id="grad2_1" x1="0%" y1="0%" x2="66.7%" y2="100%"><stop offset="20%" stop-color="#d1e1ec" stop-opacity="1"></stop><stop offset="80%" stop-color="#314bf6" stop-opacity="1"></stop></linearGradient></defs><g transform="translate(1080, 0)"><path d="M0 324.5C-47.6 300.7 -95.2 276.9 -146 252.9C-196.8 228.8 -250.7 204.4 -281 162.2C-311.3 120.1 -317.9 60 -324.5 0L0 0Z" fill="#45a2ff"></path><path d="M0 162.2C-23.8 150.4 -47.6 138.5 -73 126.4C-98.4 114.4 -125.4 102.2 -140.5 81.1C-155.7 60 -159 30 -162.2 0L0 0Z" fill="#314bf6"></path></g><g transform="translate(0, 720)"><path d="M0 -324.5C55.9 -315 111.7 -305.6 161.5 -279.7C211.3 -253.9 254.9 -211.6 281 -162.2C307.2 -112.9 315.8 -56.4 324.5 0L0 0Z" fill="#45a2ff"></path><path d="M0 -162.2C27.9 -157.5 55.9 -152.8 80.7 -139.9C105.6 -126.9 127.4 -105.8 140.5 -81.1C153.6 -56.4 157.9 -28.2 162.2 0L0 0Z" fill="#314bf6"></path></g></svg>