<svg id="visual" viewBox="0 0 1024 768" width="1024" height="768" xmlns="http://www.w3.org/2000/svg" xmlns:xlink="http://www.w3.org/1999/xlink" version="1.1"><rect x="0" y="0" width="1024" height="768" fill="#d1e1ec"></rect><defs><linearGradient id="grad1_0" x1="25%" y1="0%" x2="100%" y2="100%"><stop offset="23.333333333333336%" stop-color="#d1e1ec" stop-opacity="1"></stop><stop offset="76.66666666666666%" stop-color="#d1e1ec" stop-opacity="1"></stop></linearGradient></defs><defs><linearGradient id="grad2_0" x1="0%" y1="0%" x2="75%" y2="100%"><stop offset="23.333333333333336%" stop-color="#d1e1ec" stop-opacity="1"></stop><stop offset="76.66666666666666%" stop-color="#d1e1ec" stop-opacity="1"></stop></linearGradient></defs><g transform="translate(1024, 0)"><path d="M0 288C-46.5 274.2 -93 260.4 -137.5 238.2C-182 215.9 -224.7 185.1 -249.4 144C-274.2 102.9 -281.1 51.4 -288 0L0 0Z" fill="#314BF6"></path></g><g transform="translate(0, 768)"><path d="M0 -288C46.5 -274.2 93 -260.4 137.5 -238.2C182 -215.9 224.7 -185.1 249.4 -144C274.2 -102.9 281.1 -51.4 288 0L0 0Z" fill="#314BF6"></path></g></svg>