<svg id="visual" viewBox="0 0 900 626" width="900" height="626" xmlns="http://www.w3.org/2000/svg" xmlns:xlink="http://www.w3.org/1999/xlink" version="1.1"><rect x="0" y="0" width="900" height="626" fill="#d1e1ec"></rect><defs><linearGradient id="grad1_0" x1="30.4%" y1="0%" x2="100%" y2="100%"><stop offset="21.246006389776355%" stop-color="#314bf6" stop-opacity="1"></stop><stop offset="78.75399361022363%" stop-color="#314bf6" stop-opacity="1"></stop></linearGradient></defs><defs><linearGradient id="grad1_1" x1="30.4%" y1="0%" x2="100%" y2="100%"><stop offset="21.246006389776355%" stop-color="#314bf6" stop-opacity="1"></stop><stop offset="78.75399361022363%" stop-color="#d1e1ec" stop-opacity="1"></stop></linearGradient></defs><defs><linearGradient id="grad2_0" x1="0%" y1="0%" x2="69.6%" y2="100%"><stop offset="21.246006389776355%" stop-color="#314bf6" stop-opacity="1"></stop><stop offset="78.75399361022363%" stop-color="#314bf6" stop-opacity="1"></stop></linearGradient></defs><defs><linearGradient id="grad2_1" x1="0%" y1="0%" x2="69.6%" y2="100%"><stop offset="21.246006389776355%" stop-color="#d1e1ec" stop-opacity="1"></stop><stop offset="78.75399361022363%" stop-color="#314bf6" stop-opacity="1"></stop></linearGradient></defs><g transform="translate(900, 0)"><path d="M0 219.3C-34 206.3 -67.9 193.3 -102 176.7C-136.1 160 -170.3 139.7 -189.9 109.6C-209.5 79.6 -214.4 39.8 -219.3 0L0 0Z" fill="#45a2ff"></path><path d="M0 109.6C-17 103.1 -34 96.7 -51 88.3C-68 80 -85.2 69.8 -94.9 54.8C-104.7 39.8 -107.2 19.9 -109.6 0L0 0Z" fill="#314bf6"></path></g><g transform="translate(0, 626)"><path d="M0 -219.3C36.4 -210.4 72.7 -201.6 106.5 -184.5C140.3 -167.3 171.5 -141.8 189.9 -109.6C208.3 -77.5 213.8 -38.7 219.3 0L0 0Z" fill="#45a2ff"></path><path d="M0 -109.6C18.2 -105.2 36.4 -100.8 53.2 -92.2C70.1 -83.6 85.8 -70.9 94.9 -54.8C104.1 -38.7 106.9 -19.4 109.6 0L0 0Z" fill="#314bf6"></path></g></svg>