<svg id="visual" viewBox="0 0 900 626" width="900" height="626" xmlns="http://www.w3.org/2000/svg" xmlns:xlink="http://www.w3.org/1999/xlink" version="1.1"><rect x="0" y="0" width="900" height="626" fill="#acd3c7"></rect><defs><linearGradient id="grad1_0" x1="30.4%" y1="0%" x2="100%" y2="100%"><stop offset="21.246006389776355%" stop-color="#009473" stop-opacity="1"></stop><stop offset="78.75399361022363%" stop-color="#009473" stop-opacity="1"></stop></linearGradient></defs><defs><linearGradient id="grad1_1" x1="30.4%" y1="0%" x2="100%" y2="100%"><stop offset="21.246006389776355%" stop-color="#009473" stop-opacity="1"></stop><stop offset="78.75399361022363%" stop-color="#acd3c7" stop-opacity="1"></stop></linearGradient></defs><defs><linearGradient id="grad2_0" x1="0%" y1="0%" x2="69.6%" y2="100%"><stop offset="21.246006389776355%" stop-color="#009473" stop-opacity="1"></stop><stop offset="78.75399361022363%" stop-color="#009473" stop-opacity="1"></stop></linearGradient></defs><defs><linearGradient id="grad2_1" x1="0%" y1="0%" x2="69.6%" y2="100%"><stop offset="21.246006389776355%" stop-color="#acd3c7" stop-opacity="1"></stop><stop offset="78.75399361022363%" stop-color="#009473" stop-opacity="1"></stop></linearGradient></defs><g transform="translate(900, 0)"><path d="M0 191.9C-28.2 178 -56.5 164.1 -86.5 149.8C-116.5 135.6 -148.3 121 -166.1 95.9C-184 70.9 -187.9 35.4 -191.9 0L0 0Z" fill="#69b49d"></path><path d="M0 95.9C-14.1 89 -28.2 82 -43.2 74.9C-58.3 67.8 -74.1 60.5 -83.1 48C-92 35.4 -94 17.7 -95.9 0L0 0Z" fill="#009473"></path></g><g transform="translate(0, 626)"><path d="M0 -191.9C27.7 -177 55.4 -162.2 85.5 -148.1C115.6 -134 148 -120.5 166.1 -95.9C184.3 -71.4 188.1 -35.7 191.9 0L0 0Z" fill="#69b49d"></path><path d="M0 -95.9C13.9 -88.5 27.7 -81.1 42.7 -74C57.8 -67 74 -60.2 83.1 -48C92.1 -35.7 94 -17.8 95.9 0L0 0Z" fill="#009473"></path></g></svg>