<svg id="visual" viewBox="0 0 1080 720" width="1080" height="720" xmlns="http://www.w3.org/2000/svg" xmlns:xlink="http://www.w3.org/1999/xlink" version="1.1"><rect x="0" y="0" width="1080" height="720" fill="#d1e1ec"></rect><defs><linearGradient id="grad1_0" x1="33.3%" y1="0%" x2="100%" y2="100%"><stop offset="20%" stop-color="#314bf6" stop-opacity="1"></stop><stop offset="80%" stop-color="#314bf6" stop-opacity="1"></stop></linearGradient></defs><defs><linearGradient id="grad1_1" x1="33.3%" y1="0%" x2="100%" y2="100%"><stop offset="20%" stop-color="#314bf6" stop-opacity="1"></stop><stop offset="80%" stop-color="#d1e1ec" stop-opacity="1"></stop></linearGradient></defs><defs><linearGradient id="grad2_0" x1="0%" y1="0%" x2="66.7%" y2="100%"><stop offset="20%" stop-color="#314bf6" stop-opacity="1"></stop><stop offset="80%" stop-color="#314bf6" stop-opacity="1"></stop></linearGradient></defs><defs><linearGradient id="grad2_1" x1="0%" y1="0%" x2="66.7%" y2="100%"><stop offset="20%" stop-color="#d1e1ec" stop-opacity="1"></stop><stop offset="80%" stop-color="#314bf6" stop-opacity="1"></stop></linearGradient></defs><g transform="translate(1080, 0)"><path d="M0 356.9C-73.8 354.2 -147.6 351.4 -178.5 309.1C-209.4 266.9 -197.4 185.1 -220 127C-242.6 68.9 -299.8 34.4 -356.9 0L0 0Z" fill="#45a2ff"></path><path d="M0 178.5C-36.9 177.1 -73.8 175.7 -89.2 154.6C-104.7 133.4 -98.7 92.6 -110 63.5C-121.3 34.4 -149.9 17.2 -178.5 0L0 0Z" fill="#314bf6"></path></g><g transform="translate(0, 720)"><path d="M0 -356.9C69.1 -351.4 138.1 -345.9 178.5 -309.1C218.8 -272.3 230.5 -204.2 255.5 -147.5C280.4 -90.8 318.7 -45.4 356.9 0L0 0Z" fill="#45a2ff"></path><path d="M0 -178.5C34.5 -175.7 69.1 -173 89.2 -154.6C109.4 -136.2 115.3 -102.1 127.7 -73.8C140.2 -45.4 159.3 -22.7 178.5 0L0 0Z" fill="#314bf6"></path></g></svg>