<svg id="visual" viewBox="0 0 900 626" width="900" height="626" xmlns="http://www.w3.org/2000/svg" xmlns:xlink="http://www.w3.org/1999/xlink" version="1.1"><rect x="0" y="0" width="900" height="626" fill="#cbe5f9"></rect><defs><linearGradient id="grad1_0" x1="30.4%" y1="100%" x2="100%" y2="0%"><stop offset="21.246006389776355%" stop-color="#0066ff" stop-opacity="1"></stop><stop offset="78.75399361022363%" stop-color="#0066ff" stop-opacity="1"></stop></linearGradient></defs><defs><linearGradient id="grad1_1" x1="30.4%" y1="100%" x2="100%" y2="0%"><stop offset="21.246006389776355%" stop-color="#0066ff" stop-opacity="1"></stop><stop offset="78.75399361022363%" stop-color="#cbe5f9" stop-opacity="1"></stop></linearGradient></defs><defs><linearGradient id="grad2_0" x1="0%" y1="100%" x2="69.6%" y2="0%"><stop offset="21.246006389776355%" stop-color="#0066ff" stop-opacity="1"></stop><stop offset="78.75399361022363%" stop-color="#0066ff" stop-opacity="1"></stop></linearGradient></defs><defs><linearGradient id="grad2_1" x1="0%" y1="100%" x2="69.6%" y2="0%"><stop offset="21.246006389776355%" stop-color="#cbe5f9" stop-opacity="1"></stop><stop offset="78.75399361022363%" stop-color="#0066ff" stop-opacity="1"></stop></linearGradient></defs><g transform="translate(900, 626)"><path d="M-164.4 0C-160.6 -29.5 -156.7 -59 -142.4 -82.2C-128.1 -105.5 -103.5 -122.4 -78 -135.1C-52.5 -147.8 -26.3 -156.1 0 -164.4L0 0Z" fill="#58acff"></path><path d="M-82.2 0C-80.3 -14.7 -78.3 -29.5 -71.2 -41.1C-64.1 -52.7 -51.7 -61.2 -39 -67.5C-26.3 -73.9 -13.1 -78.1 0 -82.2L0 0Z" fill="#0066ff"></path></g><g transform="translate(0, 0)"><path d="M164.4 0C161.6 31.3 158.8 62.7 142.4 82.2C126 101.8 96 109.5 70 121.2C44 133 22 148.7 0 164.4L0 0Z" fill="#58acff"></path><path d="M82.2 0C80.8 15.7 79.4 31.3 71.2 41.1C63 50.9 48 54.8 35 60.6C22 66.5 11 74.4 0 82.2L0 0Z" fill="#0066ff"></path></g></svg>