<svg id="visual" viewBox="0 0 1024 768" width="1024" height="768" xmlns="http://www.w3.org/2000/svg" xmlns:xlink="http://www.w3.org/1999/xlink" version="1.1"><rect x="0" y="0" width="1024" height="768" fill="#d1e1ec"></rect><defs><linearGradient id="grad1_0" x1="25%" y1="0%" x2="100%" y2="100%"><stop offset="23.333333333333336%" stop-color="#314bf6" stop-opacity="1"></stop><stop offset="76.66666666666666%" stop-color="#314bf6" stop-opacity="1"></stop></linearGradient></defs><defs><linearGradient id="grad1_1" x1="25%" y1="0%" x2="100%" y2="100%"><stop offset="23.333333333333336%" stop-color="#314bf6" stop-opacity="1"></stop><stop offset="76.66666666666666%" stop-color="#d1e1ec" stop-opacity="1"></stop></linearGradient></defs><defs><linearGradient id="grad2_0" x1="0%" y1="0%" x2="75%" y2="100%"><stop offset="23.333333333333336%" stop-color="#314bf6" stop-opacity="1"></stop><stop offset="76.66666666666666%" stop-color="#314bf6" stop-opacity="1"></stop></linearGradient></defs><defs><linearGradient id="grad2_1" x1="0%" y1="0%" x2="75%" y2="100%"><stop offset="23.333333333333336%" stop-color="#d1e1ec" stop-opacity="1"></stop><stop offset="76.66666666666666%" stop-color="#314bf6" stop-opacity="1"></stop></linearGradient></defs><g transform="translate(1024, 0)"><path d="M0 320C-56.6 312 -113.3 304 -160 277.1C-206.7 250.2 -243.5 204.3 -268.5 155C-293.5 105.7 -306.7 52.8 -320 0L0 0Z" fill="#45a2ff"></path><path d="M0 160C-28.3 156 -56.6 152 -80 138.6C-103.4 125.1 -121.7 102.2 -134.2 77.5C-146.7 52.8 -153.4 26.4 -160 0L0 0Z" fill="#314bf6"></path></g><g transform="translate(0, 768)"><path d="M0 -320C48 -298.4 96.1 -276.8 146 -252.9C195.9 -228.9 247.8 -202.5 277.1 -160C306.4 -117.5 313.2 -58.7 320 0L0 0Z" fill="#45a2ff"></path><path d="M0 -160C24 -149.2 48 -138.4 73 -126.4C98 -114.5 123.9 -101.3 138.6 -80C153.2 -58.7 156.6 -29.4 160 0L0 0Z" fill="#314bf6"></path></g></svg>