<svg id="visual" viewBox="0 0 800 690" width="800" height="690" xmlns="http://www.w3.org/2000/svg" xmlns:xlink="http://www.w3.org/1999/xlink" version="1.1"><rect x="0" y="0" width="800" height="690" fill="#C1DCEC"></rect><defs><linearGradient id="grad1_0" x1="13.8%" y1="100%" x2="100%" y2="0%"><stop offset="26.81159420289855%" stop-color="#053873" stop-opacity="1"></stop><stop offset="73.18840579710145%" stop-color="#053873" stop-opacity="1"></stop></linearGradient></defs><defs><linearGradient id="grad1_1" x1="13.8%" y1="100%" x2="100%" y2="0%"><stop offset="26.81159420289855%" stop-color="#053873" stop-opacity="1"></stop><stop offset="73.18840579710145%" stop-color="#c1dcec" stop-opacity="1"></stop></linearGradient></defs><defs><linearGradient id="grad2_0" x1="0%" y1="100%" x2="86.3%" y2="0%"><stop offset="26.81159420289855%" stop-color="#053873" stop-opacity="1"></stop><stop offset="73.18840579710145%" stop-color="#053873" stop-opacity="1"></stop></linearGradient></defs><defs><linearGradient id="grad2_1" x1="0%" y1="100%" x2="86.3%" y2="0%"><stop offset="26.81159420289855%" stop-color="#c1dcec" stop-opacity="1"></stop><stop offset="73.18840579710145%" stop-color="#053873" stop-opacity="1"></stop></linearGradient></defs><g transform="translate(800, 690)"><path d="M-184.9 0C-181.8 -35.4 -178.7 -70.8 -160.1 -92.4C-141.5 -114.1 -107.3 -122 -78 -135.1C-48.7 -148.2 -24.4 -166.5 0 -184.9L0 0Z" fill="#5f88b0"></path><path d="M-92.4 0C-90.9 -17.7 -89.4 -35.4 -80.1 -46.2C-70.7 -57 -53.6 -61 -39 -67.5C-24.4 -74.1 -12.2 -83.3 0 -92.4L0 0Z" fill="#053873"></path></g><g transform="translate(0, 0)"><path d="M184.9 0C174.9 29.2 164.8 58.3 150.7 87C136.5 115.7 118.2 143.9 92.4 160.1C66.6 176.3 33.3 180.6 0 184.9L0 0Z" fill="#5f88b0"></path><path d="M92.4 0C87.4 14.6 82.4 29.2 75.3 43.5C68.3 57.8 59.1 71.9 46.2 80.1C33.3 88.2 16.7 90.3 0 92.4L0 0Z" fill="#053873"></path></g></svg>