<svg id="visual" viewBox="0 0 900 626" width="900" height="626" xmlns="http://www.w3.org/2000/svg" xmlns:xlink="http://www.w3.org/1999/xlink" version="1.1"><rect x="0" y="0" width="900" height="626" fill="#c1cfda"></rect><defs><linearGradient id="grad1_0" x1="30.4%" y1="0%" x2="100%" y2="100%"><stop offset="21.246006389776355%" stop-color="#c1398d" stop-opacity="1"></stop><stop offset="78.75399361022363%" stop-color="#c1398d" stop-opacity="1"></stop></linearGradient></defs><defs><linearGradient id="grad1_1" x1="30.4%" y1="0%" x2="100%" y2="100%"><stop offset="21.246006389776355%" stop-color="#c1398d" stop-opacity="1"></stop><stop offset="78.75399361022363%" stop-color="#c1cfda" stop-opacity="1"></stop></linearGradient></defs><defs><linearGradient id="grad2_0" x1="0%" y1="0%" x2="69.6%" y2="100%"><stop offset="21.246006389776355%" stop-color="#c1398d" stop-opacity="1"></stop><stop offset="78.75399361022363%" stop-color="#c1398d" stop-opacity="1"></stop></linearGradient></defs><defs><linearGradient id="grad2_1" x1="0%" y1="0%" x2="69.6%" y2="100%"><stop offset="21.246006389776355%" stop-color="#c1cfda" stop-opacity="1"></stop><stop offset="78.75399361022363%" stop-color="#c1398d" stop-opacity="1"></stop></linearGradient></defs><g transform="translate(900, 0)"><path d="M0 164.4C-22.3 149.2 -44.5 133.9 -70.5 122.1C-96.5 110.3 -126.1 102 -142.4 82.2C-158.7 62.5 -161.6 31.2 -164.4 0L0 0Z" fill="#9d96d5"></path><path d="M0 82.2C-11.1 74.6 -22.3 67 -35.2 61.1C-48.2 55.2 -63.1 51 -71.2 41.1C-79.3 31.2 -80.8 15.6 -82.2 0L0 0Z" fill="#c1398d"></path></g><g transform="translate(0, 626)"><path d="M0 -164.4C29.7 -160.7 59.4 -157 82.2 -142.4C105 -127.9 120.8 -102.5 133.4 -77C145.9 -51.5 155.2 -25.7 164.4 0L0 0Z" fill="#9d96d5"></path><path d="M0 -82.2C14.9 -80.4 29.7 -78.5 41.1 -71.2C52.5 -63.9 60.4 -51.3 66.7 -38.5C73 -25.7 77.6 -12.9 82.2 0L0 0Z" fill="#c1398d"></path></g></svg>