<svg id="visual" viewBox="0 0 900 626" width="900" height="626" xmlns="http://www.w3.org/2000/svg" xmlns:xlink="http://www.w3.org/1999/xlink" version="1.1"><rect x="0" y="0" width="900" height="626" fill="#d1e1ec"></rect><defs><linearGradient id="grad1_0" x1="30.4%" y1="0%" x2="100%" y2="100%"><stop offset="21.246006389776355%" stop-color="#314bf6" stop-opacity="1"></stop><stop offset="78.75399361022363%" stop-color="#314bf6" stop-opacity="1"></stop></linearGradient></defs><defs><linearGradient id="grad1_1" x1="30.4%" y1="0%" x2="100%" y2="100%"><stop offset="21.246006389776355%" stop-color="#314bf6" stop-opacity="1"></stop><stop offset="78.75399361022363%" stop-color="#d1e1ec" stop-opacity="1"></stop></linearGradient></defs><defs><linearGradient id="grad2_0" x1="0%" y1="0%" x2="69.6%" y2="100%"><stop offset="21.246006389776355%" stop-color="#314bf6" stop-opacity="1"></stop><stop offset="78.75399361022363%" stop-color="#314bf6" stop-opacity="1"></stop></linearGradient></defs><defs><linearGradient id="grad2_1" x1="0%" y1="0%" x2="69.6%" y2="100%"><stop offset="21.246006389776355%" stop-color="#d1e1ec" stop-opacity="1"></stop><stop offset="78.75399361022363%" stop-color="#314bf6" stop-opacity="1"></stop></linearGradient></defs><g transform="translate(900, 0)"><path d="M0 274.1C-35.8 270.4 -71.6 266.8 -104.9 253.2C-138.2 239.6 -168.9 216 -187.4 187.4C-205.9 158.7 -212.1 125.1 -224.5 93C-236.9 60.9 -255.5 30.5 -274.1 0L0 0Z" fill="#45a2ff"></path><path d="M0 137C-17.9 135.2 -35.8 133.4 -52.4 126.6C-69.1 119.8 -84.4 108 -93.7 93.7C-102.9 79.4 -106 62.5 -112.3 46.5C-118.5 30.5 -127.7 15.2 -137 0L0 0Z" fill="#314bf6"></path></g><g transform="translate(0, 626)"><path d="M0 -274.1C31.9 -260.9 63.8 -247.7 98 -236.5C132.1 -225.3 168.5 -216.2 193.8 -193.8C219.1 -171.4 233.3 -135.9 244.8 -101.4C256.4 -66.9 265.2 -33.5 274.1 0L0 0Z" fill="#45a2ff"></path><path d="M0 -137C16 -130.4 31.9 -123.8 49 -118.3C66.1 -112.7 84.3 -108.1 96.9 -96.9C109.5 -85.7 116.6 -68 122.4 -50.7C128.2 -33.5 132.6 -16.7 137 0L0 0Z" fill="#314bf6"></path></g></svg>