<svg id="visual" viewBox="0 0 900 675" width="900" height="675" xmlns="http://www.w3.org/2000/svg" xmlns:xlink="http://www.w3.org/1999/xlink" version="1.1"><rect x="0" y="0" width="900" height="675" fill="#3a3a3a"></rect><path d="M0 382L37.5 396.7C75 411.3 150 440.7 225 443.2C300 445.7 375 421.3 450 412.8C525 404.3 600 411.7 675 420C750 428.3 825 437.7 862.5 442.3L900 447L900 676L862.5 676C825 676 750 676 675 676C600 676 525 676 450 676C375 676 300 676 225 676C150 676 75 676 37.5 676L0 676Z" fill="#c1dcec"></path><path d="M0 507L37.5 501.7C75 496.3 150 485.7 225 477C300 468.3 375 461.7 450 463.5C525 465.3 600 475.7 675 491.8C750 508 825 530 862.5 541L900 552L900 676L862.5 676C825 676 750 676 675 676C600 676 525 676 450 676C375 676 300 676 225 676C150 676 75 676 37.5 676L0 676Z" fill="#26a0ff"></path><path d="M0 620L37.5 611.5C75 603 150 586 225 577.5C300 569 375 569 450 578.8C525 588.7 600 608.3 675 611.8C750 615.3 825 602.7 862.5 596.3L900 590L900 676L862.5 676C825 676 750 676 675 676C600 676 525 676 450 676C375 676 300 676 225 676C150 676 75 676 37.5 676L0 676Z" fill="#314bf6"></path></svg>