<svg id="visual" viewBox="0 0 1543.2 768" width="1543.2" height="768" xmlns="http://www.w3.org/2000/svg" xmlns:xlink="http://www.w3.org/1999/xlink" version="1.1"><rect x="0" y="0" width="1543.2" height="768" fill="#b4d3eb"></rect><path d="M0 529L51.5 541C103 553 206 577 308.8 581.7C411.7 586.3 514.3 571.7 617.2 553.2C720 534.7 823 512.3 926 500.8C1029 489.3 1132 488.7 1234.8 499.3C1337.7 510 1440.3 532 1491.7 543L1543 554L1543 769L1491.7 769C1440.3 769 1337.7 769 1234.8 769C1132 769 1029 769 926 769C823 769 720 769 617.2 769C514.3 769 411.7 769 308.8 769C206 769 103 769 51.5 769L0 769Z" fill="#0693E3"></path></svg>