<svg id="visual" viewBox="0 0 900 675" width="900" height="675" xmlns="http://www.w3.org/2000/svg" xmlns:xlink="http://www.w3.org/1999/xlink" version="1.1"><rect x="0" y="0" width="900" height="675" fill="#f5f8fa"></rect><path d="M0 515L37.5 512.5C75 510 150 505 225 503C300 501 375 502 450 486.7C525 471.3 600 439.7 675 422.5C750 405.3 825 402.7 862.5 401.3L900 400L900 676L862.5 676C825 676 750 676 675 676C600 676 525 676 450 676C375 676 300 676 225 676C150 676 75 676 37.5 676L0 676Z" fill="#c1dcec"></path><path d="M0 611L37.5 607.3C75 603.7 150 596.3 225 585.8C300 575.3 375 561.7 450 557.8C525 554 600 560 675 554.8C750 549.7 825 533.3 862.5 525.2L900 517L900 676L862.5 676C825 676 750 676 675 676C600 676 525 676 450 676C375 676 300 676 225 676C150 676 75 676 37.5 676L0 676Z" fill="#314bf6"></path></svg>