<svg id="visual" viewBox="0 0 1600 800" width="1600" height="800" xmlns="http://www.w3.org/2000/svg" xmlns:xlink="http://www.w3.org/1999/xlink" version="1.1"><rect x="0" y="0" width="1600" height="800" fill="#ffdbd8"></rect><path d="M0 507L29.7 513.5C59.3 520 118.7 533 178 524.2C237.3 515.3 296.7 484.7 355.8 479.3C415 474 474 494 533.2 512.2C592.3 530.3 651.7 546.7 711 547.5C770.3 548.3 829.7 533.7 889 526.8C948.3 520 1007.7 521 1066.8 523.2C1126 525.3 1185 528.7 1244.2 527C1303.3 525.3 1362.7 518.7 1422 508C1481.3 497.3 1540.7 482.7 1570.3 475.3L1600 468L1600 801L1570.3 801C1540.7 801 1481.3 801 1422 801C1362.7 801 1303.3 801 1244.2 801C1185 801 1126 801 1066.8 801C1007.7 801 948.3 801 889 801C829.7 801 770.3 801 711 801C651.7 801 592.3 801 533.2 801C474 801 415 801 355.8 801C296.7 801 237.3 801 178 801C118.7 801 59.3 801 29.7 801L0 801Z" fill="#ff948a"></path><path d="M0 569L29.7 569.3C59.3 569.7 118.7 570.3 178 569C237.3 567.7 296.7 564.3 355.8 562.3C415 560.3 474 559.7 533.2 564.7C592.3 569.7 651.7 580.3 711 588C770.3 595.7 829.7 600.3 889 595.3C948.3 590.3 1007.7 575.7 1066.8 567.3C1126 559 1185 557 1244.2 566.8C1303.3 576.7 1362.7 598.3 1422 603.7C1481.3 609 1540.7 598 1570.3 592.5L1600 587L1600 801L1570.3 801C1540.7 801 1481.3 801 1422 801C1362.7 801 1303.3 801 1244.2 801C1185 801 1126 801 1066.8 801C1007.7 801 948.3 801 889 801C829.7 801 770.3 801 711 801C651.7 801 592.3 801 533.2 801C474 801 415 801 355.8 801C296.7 801 237.3 801 178 801C118.7 801 59.3 801 29.7 801L0 801Z" fill="#e56174"></path><path d="M0 681L29.7 684.3C59.3 687.7 118.7 694.3 178 694.2C237.3 694 296.7 687 355.8 686.5C415 686 474 692 533.2 686C592.3 680 651.7 662 711 654.7C770.3 647.3 829.7 650.7 889 657C948.3 663.3 1007.7 672.7 1066.8 678.8C1126 685 1185 688 1244.2 689C1303.3 690 1362.7 689 1422 685.3C1481.3 681.7 1540.7 675.3 1570.3 672.2L1600 669L1600 801L1570.3 801C1540.7 801 1481.3 801 1422 801C1362.7 801 1303.3 801 1244.2 801C1185 801 1126 801 1066.8 801C1007.7 801 948.3 801 889 801C829.7 801 770.3 801 711 801C651.7 801 592.3 801 533.2 801C474 801 415 801 355.8 801C296.7 801 237.3 801 178 801C118.7 801 59.3 801 29.7 801L0 801Z" fill="#c62368"></path></svg>