<svg id="visual" viewBox="0 0 1519.2 573.375" width="1519.2" height="573.375" xmlns="http://www.w3.org/2000/svg" xmlns:xlink="http://www.w3.org/1999/xlink" version="1.1"><rect x="0" y="0" width="1519.2" height="573.375" fill="#b9e1f5"></rect><path d="M0 463L36.2 461.5C72.3 460 144.7 457 217 450.5C289.3 444 361.7 434 434 427C506.3 420 578.7 416 651 423C723.3 430 795.7 448 868 450C940.3 452 1012.7 438 1085 427.5C1157.3 417 1229.7 410 1302 407.5C1374.3 405 1446.7 407 1482.8 408L1519 409L1519 574L1482.8 574C1446.7 574 1374.3 574 1302 574C1229.7 574 1157.3 574 1085 574C1012.7 574 940.3 574 868 574C795.7 574 723.3 574 651 574C578.7 574 506.3 574 434 574C361.7 574 289.3 574 217 574C144.7 574 72.3 574 36.2 574L0 574Z" fill="#0693E3" stroke-linecap="round" stroke-linejoin="miter"></path></svg>