<svg id="visual" viewBox="0 0 1600 800" width="1600" height="800" xmlns="http://www.w3.org/2000/svg" xmlns:xlink="http://www.w3.org/1999/xlink" version="1.1"><rect x="0" y="0" width="1600" height="800" fill="#b9e1f5"></rect><path d="M0 671L53.3 651.3C106.7 631.7 213.3 592.3 320 577.3C426.7 562.3 533.3 571.7 640 592.8C746.7 614 853.3 647 960 662.5C1066.7 678 1173.3 676 1280 656.2C1386.7 636.3 1493.3 598.7 1546.7 579.8L1600 561L1600 801L1546.7 801C1493.3 801 1386.7 801 1280 801C1173.3 801 1066.7 801 960 801C853.3 801 746.7 801 640 801C533.3 801 426.7 801 320 801C213.3 801 106.7 801 53.3 801L0 801Z" fill="#0693E3" stroke-linecap="round" stroke-linejoin="miter"></path></svg>