<svg id="visual" viewBox="0 0 1519 636" width="1519" height="636" xmlns="http://www.w3.org/2000/svg" xmlns:xlink="http://www.w3.org/1999/xlink" version="1.1"><rect x="0" y="0" width="1519" height="636" fill="#ffffff"></rect><path d="M0 509L36.2 517.8C72.3 526.7 144.7 544.3 217 554.8C289.3 565.3 361.7 568.7 434 568.2C506.3 567.7 578.7 563.3 651 559.2C723.3 555 795.7 551 868 547.7C940.3 544.3 1012.7 541.7 1085 544.5C1157.3 547.3 1229.7 555.7 1302 563.2C1374.3 570.7 1446.7 577.3 1482.8 580.7L1519 584L1519 637L1482.8 637C1446.7 637 1374.3 637 1302 637C1229.7 637 1157.3 637 1085 637C1012.7 637 940.3 637 868 637C795.7 637 723.3 637 651 637C578.7 637 506.3 637 434 637C361.7 637 289.3 637 217 637C144.7 637 72.3 637 36.2 637L0 637Z" fill="#9bd2f1" stroke-linecap="round" stroke-linejoin="miter"></path></svg>